<svg width="624" height="100%" viewBox="0 0 624 615" fill="none" xmlns="http://www.w3.org/2000/svg">
<path d="M259 121L305.5 2L530.5 542L540 559L546 567.5L553.5 576.5L560.5 583.5L567 588.5L574.5 593L583.5 596.5L594 599.5L611 602.5L623 603V613.5L346 614V603.5H352.5L367 602L382 598.5L394 594L405 587L414.5 577.5L420 569L423.5 560L425.5 547L423.5 531L420 517.5L415 503.5L259 121Z" fill="#1B1B1B" class="svg-elem-1"></path>
<path d="M130.5 511.5H105.5L87.5 547.5L74 565.5L58.5 582.5L45.5 592.5L30.5 600L15 603.5H1V613.5H194.5V604H188.5L170.5 600.5L157.5 595L149.5 589.5L143 583.5L134 572L129.5 562.5L126.5 553L125.5 544L126.5 533.5L128 522.5L130.5 511.5Z" fill="#1B1B1B" class="svg-elem-2"></path>
<path d="M259 121L305.5 2L530.5 542L540 559L546 567.5L553.5 576.5L560.5 583.5L567 588.5L574.5 593L583.5 596.5L594 599.5L611 602.5L623 603V613.5L346 614V603.5H352.5L367 602L382 598.5L394 594L405 587L414.5 577.5L420 569L423.5 560L425.5 547L423.5 531L420 517.5L415 503.5L259 121Z" stroke="#1B1B1B" class="svg-elem-3"></path>
<path d="M130.5 511.5H105.5L87.5 547.5L74 565.5L58.5 582.5L45.5 592.5L30.5 600L15 603.5H1V613.5H194.5V604H188.5L170.5 600.5L157.5 595L149.5 589.5L143 583.5L134 572L129.5 562.5L126.5 553L125.5 544L126.5 533.5L128 522.5L130.5 511.5Z" stroke="#1B1B1B" class="svg-elem-4"></path>
</svg>
