<?xml version="1.0"?>
<svg xmlns="http://www.w3.org/2000/svg" xmlns:xlink="http://www.w3.org/1999/xlink" version="1.1" id="Capa_1" x="0px" y="0px" viewBox="0 0 512 512" style="enable-background:new 0 0 512 512;" xml:space="preserve" width="512px" height="512px"><g><g>
	<g>
		<path d="M0,0v512h512V0H0z M482,482H30V30h452V482z" data-original="#000000" class="active-path" data-old_color="#000000" fill="#6C757D"/>
	</g>
</g><g>
	<g>
		<path d="M60,60v392h392V60H60z M148.322,352H86.401V181.6h61.921c49.928,0,84,33.15,84,84.96C232.322,308,207.75,352,148.322,352z     M389.039,352h-26.4l-21.6-55.2l-21.36,55.2h-26.4L240.96,226.24h30.24l37.439,95.52l15.359-40.8l-22.08-54.48h25.92l13.201,38.64    l13.439-38.64h25.92l-21.84,54.48l15.12,40.8l37.44-95.52h30.479L389.039,352z" data-original="#000000" class="active-path" data-old_color="#000000" fill="#6C757D"/>
	</g>
</g><g>
	<g>
		<path d="M148.322,210.64h-28.801v112.32h28.801c30.428,0,50.639-24.21,50.639-56.4C198.961,232.25,178.5,210.64,148.322,210.64z" data-original="#000000" class="active-path" data-old_color="#000000" fill="#6C757D"/>
	</g>
</g></g> </svg>
